<svg width="1833" height="435" viewBox="0 0 1833 435" fill="none" xmlns="http://www.w3.org/2000/svg">
<path d="M57.4423 102.976L0 428.666H56.8542L71.3617 346.459C170.627 334.174 261.79 256.673 291.197 159.632H409.153L419.152 102.976H57.4423ZM233.363 159.697C209.641 225.175 149.127 276.669 81.5563 288.823L104.298 159.697H233.298H233.363Z" fill="#70ED70"/>
<path d="M302.374 428.797L342.825 198.056H402.358L361.907 428.797H302.374Z" fill="#70ED70"/>
<path d="M505.741 428.797C484.633 428.797 467.839 424.484 455.292 415.793C442.744 407.101 436.471 392.072 436.471 370.638C436.471 367.24 436.732 363.58 437.19 359.725C437.647 355.869 438.17 351.883 438.823 347.831L456.533 247.785H419.284L428.106 197.991H465.355L475.158 141.727H535.149L524.889 197.991H587.69L578.41 247.785H516.524L498.357 348.289C498.03 349.857 497.834 351.36 497.638 352.929C497.507 354.497 497.377 356 497.377 357.568C497.377 365.018 499.468 370.311 503.65 373.382C507.833 376.519 514.76 378.022 524.366 378.022H555.995L546.716 428.731H505.741V428.797Z" fill="#70ED70"/>
<path d="M683.427 434.351C662.057 434.351 643.825 429.973 628.729 421.347C613.699 412.656 602.197 400.828 594.29 385.733C586.383 370.703 582.396 353.843 582.396 335.285C582.396 315.158 586.056 296.469 593.31 279.217C600.563 262.031 610.693 246.87 623.567 233.866C636.44 220.862 651.536 210.668 668.919 203.414C686.302 196.161 705.188 192.502 725.708 192.502C755.507 192.502 779.295 200.408 797.135 216.222C814.975 232.036 823.863 253.928 823.863 281.831H761.062C761.062 269.415 756.88 259.874 748.515 253.209C740.15 246.544 729.564 243.211 716.886 243.211C704.208 243.211 694.144 245.825 684.995 251.118C675.846 256.411 668.266 263.403 662.188 272.029C656.111 280.72 651.536 290.065 648.465 300.194C645.328 310.257 643.825 320.124 643.825 329.73C643.825 346.198 648.334 359.267 657.287 369.069C666.305 378.871 677.937 383.707 692.184 383.707C704.927 383.707 716.624 380.374 727.342 373.709C738.059 367.044 745.705 357.503 750.345 345.087H812.688C805.238 365.867 794.456 382.858 780.34 396.058C766.225 409.258 750.737 418.929 733.811 425.137C716.886 431.345 700.091 434.416 683.296 434.416L683.427 434.351Z" fill="#70ED70"/>
<path d="M831.837 428.797L889.083 103.107H948.616L925.809 233.343C935.416 220.927 947.44 210.995 961.882 203.545C976.325 196.096 992.204 192.371 1009.59 192.371C1033.77 192.371 1052.26 198.84 1064.94 211.714C1077.68 224.587 1084.02 243.407 1084.02 268.239C1084.02 277.518 1083.11 287.647 1081.21 298.494L1057.95 428.731H998.413L1020.76 304.049C1021.35 300.324 1021.81 296.861 1022.14 293.593C1022.46 290.326 1022.59 287.124 1022.59 284.053C1022.59 270.395 1019.26 260.07 1012.59 253.144C1005.93 246.151 995.472 242.688 981.16 242.688C964.692 242.688 950.054 248.569 937.18 260.397C924.306 272.16 916.007 288.627 912.282 309.734L891.37 428.862H831.837V428.797Z" fill="#70ED70"/>
<path d="M1096.11 428.797L1153.81 103.107H1213.35L1155.64 428.797H1096.11Z" fill="#70ED70"/>
<path d="M1201.26 428.797L1241.71 198.056H1301.24L1260.79 428.797H1201.26Z" fill="#70ED70"/>
<path d="M1305.95 428.797L1346.4 198.056H1399.01L1397.63 236.219C1407.24 222.888 1419.33 212.236 1433.9 204.329C1448.47 196.422 1464.75 192.436 1482.78 192.436C1506.64 192.436 1525.2 199.036 1538.4 212.236C1551.6 225.436 1558.2 244.387 1558.2 269.219C1558.2 273.597 1557.94 278.237 1557.48 283.203C1557.02 288.17 1556.3 293.267 1555.39 298.56L1532.12 428.797H1472.59L1494.94 304.114C1495.53 301.631 1496.05 298.298 1496.31 294.116C1496.64 289.934 1496.77 286.732 1496.77 284.576C1496.77 256.672 1482.98 242.688 1455.34 242.688C1444.49 242.688 1434.23 245.302 1424.62 250.595C1415.02 255.888 1406.91 263.338 1400.44 272.944C1393.91 282.55 1389.4 294.182 1386.98 307.839L1365.55 428.797H1306.01H1305.95Z" fill="#70ED70"/>
<path d="M1681.38 434.351C1650.67 434.351 1626.23 425.529 1608.12 407.82C1589.96 390.111 1580.87 366.259 1580.87 336.2C1580.87 316.334 1584.34 297.776 1591.33 280.393C1598.32 263.011 1608.12 247.72 1620.87 234.585C1633.61 221.385 1648.71 211.06 1666.22 203.676C1683.73 196.226 1702.88 192.502 1723.66 192.502C1744.44 192.502 1761.24 196.292 1776.01 203.872C1790.71 211.452 1802.08 222.169 1809.99 235.957C1817.9 249.746 1821.88 265.821 1821.88 284.118C1821.88 291.568 1821.16 299.213 1819.79 307.12C1818.42 315.027 1816.79 321.954 1814.89 327.835H1639.95C1639.62 329.077 1639.49 330.319 1639.49 331.56V335.742C1639.49 351.23 1644.13 363.45 1653.48 372.271C1662.82 381.093 1674.85 385.537 1689.75 385.537C1701.51 385.537 1712.03 382.792 1721.18 377.368C1730.33 371.945 1737.84 364.887 1743.72 356.196H1804.17C1795.81 373.905 1784.96 388.477 1771.63 399.913C1758.3 411.414 1743.79 419.975 1728.11 425.725C1712.42 431.476 1696.87 434.351 1681.32 434.351H1681.38ZM1647.4 290.588H1762.28C1762.61 289.346 1762.74 288.235 1762.74 287.32V285.49C1763.07 271.833 1758.89 260.985 1750.19 252.948C1741.5 244.91 1730 240.858 1715.76 240.858C1701.51 240.858 1687.98 244.975 1675.3 253.209C1662.56 261.443 1653.28 273.924 1647.4 290.653V290.588Z" fill="#70ED70"/>
<path d="M1308.69 156.43H1249.03L1258.44 103.107H1318.1L1308.69 156.43Z" fill="#70ED70"/>
<path d="M1760.37 75.5429C1765.23 75.5429 1769.06 74.5719 1771.87 72.6279C1774.72 70.6849 1776.14 67.1799 1776.14 62.1139C1776.14 56.6659 1774.17 52.9529 1770.21 50.9749C1768.09 49.9339 1765.26 49.4139 1761.72 49.4139H1736.43V75.5429H1760.37ZM1726.07 40.5129H1761.46C1767.29 40.5129 1772.1 41.3629 1775.88 43.0629C1783.07 46.3249 1786.66 52.3459 1786.66 61.1249C1786.66 65.7059 1785.7 69.4529 1783.79 72.3679C1781.92 75.2829 1779.28 77.6249 1775.88 79.3949C1778.87 80.6099 1781.11 82.2059 1782.6 84.1839C1784.12 86.1619 1784.97 89.3709 1785.15 93.8129L1785.51 104.067C1785.62 106.982 1785.86 109.151 1786.24 110.574C1786.87 113.003 1787.98 114.564 1789.57 115.258V116.976H1776.87C1776.52 116.317 1776.25 115.467 1776.04 114.425C1775.83 113.384 1775.66 111.372 1775.52 108.388L1774.89 95.6349C1774.65 90.6379 1772.79 87.2889 1769.32 85.5889C1767.35 84.6519 1764.24 84.1839 1760.01 84.1839H1736.43V116.976H1726.07V40.5129Z" fill="#70ED70"/>
<mask id="mask0_13_31" style="mask-type:luminance" maskUnits="userSpaceOnUse" x="1724" y="39" width="67" height="79">
<path d="M1790.7 39.976H1724.7V117.976H1790.7V39.976Z" fill="white"/>
<path d="M1760.37 75.5429C1765.23 75.5429 1769.06 74.5719 1771.87 72.6279C1774.72 70.6849 1776.14 67.1799 1776.14 62.1139C1776.14 56.6659 1774.17 52.9529 1770.21 50.9749C1768.09 49.9339 1765.26 49.4139 1761.72 49.4139H1736.43V75.5429H1760.37ZM1726.07 40.5129H1761.46C1767.29 40.5129 1772.1 41.3629 1775.88 43.0629C1783.07 46.3249 1786.66 52.3459 1786.66 61.1249C1786.66 65.7059 1785.7 69.4529 1783.79 72.3679C1781.92 75.2829 1779.28 77.6249 1775.88 79.3949C1778.87 80.6099 1781.11 82.2059 1782.6 84.1839C1784.12 86.1619 1784.97 89.3709 1785.15 93.8129L1785.51 104.067C1785.62 106.982 1785.86 109.151 1786.24 110.574C1786.87 113.003 1787.98 114.564 1789.57 115.258V116.976H1776.87C1776.52 116.317 1776.25 115.467 1776.04 114.425C1775.83 113.384 1775.66 111.372 1775.52 108.388L1774.89 95.6349C1774.65 90.6379 1772.79 87.2889 1769.32 85.5889C1767.35 84.6519 1764.24 84.1839 1760.01 84.1839H1736.43V116.976H1726.07V40.5129Z" fill="black"/>
</mask>
<g mask="url(#mask0_13_31)">
<path d="M1771.87 72.6279L1771.61 72.243V72.244L1771.87 72.6279ZM1736.43 49.414V48.946H1735.96V49.414H1736.43ZM1736.43 75.543H1735.96V76.0099H1736.43V75.543ZM1726.07 40.513V40.046H1725.6V40.513H1726.07ZM1775.88 43.063L1776.08 42.638L1776.07 42.6369L1775.88 43.063ZM1783.79 72.368L1783.4 72.112V72.116L1783.79 72.368ZM1775.88 79.395L1775.67 78.981L1774.77 79.4469L1775.71 79.828L1775.88 79.395ZM1782.6 84.1839L1782.22 84.465L1782.23 84.4689L1782.6 84.1839ZM1785.15 93.813L1785.61 93.797V93.795L1785.15 93.813ZM1786.24 110.574L1786.69 110.457V110.453L1786.24 110.574ZM1789.57 115.258H1790.04V114.952L1789.76 114.83L1789.57 115.258ZM1789.57 116.976V117.443H1790.04V116.976H1789.57ZM1776.87 116.976L1776.46 117.194L1776.59 117.443H1776.87V116.976ZM1775.52 108.388L1775.99 108.366L1775.98 108.365L1775.52 108.388ZM1769.32 85.589L1769.53 85.17L1769.52 85.1669L1769.32 85.589ZM1736.43 84.1839V83.7169H1735.96V84.1839H1736.43ZM1736.43 116.976V117.443H1736.9V116.976H1736.43ZM1726.07 116.976H1725.6V117.443H1726.07V116.976ZM1760.37 75.543V76.0099C1765.29 76.0099 1769.23 75.028 1772.14 73.013L1771.87 72.6279L1771.61 72.244C1768.9 74.115 1765.17 75.076 1760.37 75.076V75.543ZM1771.87 72.6279L1772.14 73.013C1775.16 70.947 1776.61 67.258 1776.61 62.114H1776.14H1775.68C1775.68 67.103 1774.28 70.422 1771.61 72.243L1771.87 72.6279ZM1776.14 62.114H1776.61C1776.61 56.538 1774.57 52.6339 1770.42 50.5569L1770.21 50.9749L1770 51.393C1773.76 53.272 1775.68 56.794 1775.68 62.114H1776.14ZM1770.21 50.9749L1770.42 50.5569C1768.21 49.4729 1765.3 48.946 1761.72 48.946V49.414V49.881C1765.23 49.881 1767.97 50.395 1770 51.393L1770.21 50.9749ZM1761.72 49.414V48.946H1736.43V49.414V49.881H1761.72V49.414ZM1736.43 49.414H1735.96V75.543H1736.43H1736.9V49.414H1736.43ZM1736.43 75.543V76.0099H1760.37V75.543V75.076H1736.43V75.543ZM1726.07 40.513V40.9799H1761.46V40.513V40.046H1726.07V40.513ZM1761.46 40.513V40.9799C1767.25 40.9799 1771.99 41.825 1775.69 43.489L1775.88 43.063L1776.07 42.6369C1772.21 40.9009 1767.34 40.046 1761.46 40.046V40.513ZM1775.88 43.063L1775.69 43.489C1779.21 45.085 1781.82 47.3459 1783.56 50.2639C1785.31 53.1859 1786.19 56.799 1786.19 61.125H1786.66H1787.12C1787.12 56.672 1786.21 52.8849 1784.36 49.7859C1782.51 46.6839 1779.74 44.303 1776.08 42.638L1775.88 43.063ZM1786.66 61.125H1786.19C1786.19 65.643 1785.25 69.294 1783.4 72.112L1783.79 72.368L1784.19 72.6239C1786.16 69.6129 1787.12 65.768 1787.12 61.125H1786.66ZM1783.79 72.368L1783.4 72.116C1781.58 74.955 1779 77.244 1775.67 78.981L1775.88 79.395L1776.1 79.8089C1779.56 78.0059 1782.27 75.611 1784.19 72.621L1783.79 72.368ZM1775.88 79.395L1775.71 79.828C1778.64 81.02 1780.8 82.572 1782.22 84.465L1782.6 84.1839L1782.97 83.9019C1781.41 81.8399 1779.1 80.1989 1776.06 78.9619L1775.88 79.395ZM1782.6 84.1839L1782.23 84.4689C1783.66 86.3309 1784.51 89.4199 1784.68 93.8309L1785.15 93.813L1785.61 93.795C1785.44 89.323 1784.58 85.9929 1782.97 83.8979L1782.6 84.1839ZM1785.15 93.813L1784.68 93.8309L1785.05 104.084L1785.51 104.067L1785.98 104.051L1785.61 93.797L1785.15 93.813ZM1785.51 104.067L1785.05 104.084C1785.15 107.007 1785.39 109.219 1785.79 110.695L1786.24 110.574L1786.69 110.453C1786.32 109.083 1786.08 106.957 1785.98 104.051L1785.51 104.067ZM1786.24 110.574L1785.79 110.69C1786.43 113.194 1787.61 114.913 1789.39 115.687L1789.57 115.258L1789.76 114.83C1788.35 114.215 1787.3 112.811 1786.69 110.457L1786.24 110.574ZM1789.57 115.258H1789.11V116.976H1789.57H1790.04V115.258H1789.57ZM1789.57 116.976V116.509H1776.87V116.976V117.443H1789.57V116.976ZM1776.87 116.976L1777.29 116.758C1776.97 116.152 1776.7 115.348 1776.5 114.334L1776.04 114.425L1775.58 114.517C1775.79 115.585 1776.08 116.482 1776.46 117.194L1776.87 116.976ZM1776.04 114.425L1776.5 114.334C1776.3 113.333 1776.12 111.354 1775.99 108.366L1775.52 108.388L1775.05 108.409C1775.19 111.389 1775.36 113.436 1775.58 114.517L1776.04 114.425ZM1775.52 108.388L1775.98 108.365L1775.36 95.612L1774.89 95.6349L1774.43 95.658L1775.05 108.41L1775.52 108.388ZM1774.89 95.6349L1775.36 95.612C1775.11 90.504 1773.2 86.967 1769.53 85.17L1769.32 85.589L1769.12 86.009C1772.39 87.612 1774.19 90.773 1774.43 95.658L1774.89 95.6349ZM1769.32 85.589L1769.52 85.1669C1767.45 84.1839 1764.26 83.7169 1760.01 83.7169V84.1839V84.651C1764.22 84.651 1767.24 85.12 1769.12 86.011L1769.32 85.589ZM1760.01 84.1839V83.7169H1736.43V84.1839V84.651H1760.01V84.1839ZM1736.43 84.1839H1735.96V116.976H1736.43H1736.9V84.1839H1736.43ZM1736.43 116.976V116.509H1726.07V116.976V117.443H1736.43V116.976ZM1726.07 116.976H1726.54V40.513H1726.07H1725.6V116.976H1726.07Z" fill="#70ED70"/>
</g>
<path d="M1755 151.329C1795.5 151.329 1828.33 118.499 1828.33 78C1828.33 37.5013 1795.5 4.67065 1755 4.67065C1714.5 4.67065 1681.67 37.5013 1681.67 78C1681.67 118.499 1714.5 151.329 1755 151.329Z" stroke="#70ED70" stroke-width="9.34132"/>
</svg>
