<svg width="130" height="24" viewBox="0 0 130 24" fill="none" xmlns="http://www.w3.org/2000/svg">
<path d="M4.07224 0L0 23.0891H4.03054L5.05903 17.2612C12.0963 16.3903 18.559 10.896 20.6438 4.0165H29.006L29.7148 0H4.07224ZM16.5438 4.02113C14.8621 8.66304 10.5721 12.3136 5.78175 13.1752L7.39397 4.02113H16.5391H16.5438Z" fill="#020202"/>
<path d="M21.436 23.0983L24.3037 6.74048H28.5242L25.6565 23.0983H21.436Z" fill="#020202"/>
<path d="M35.8533 23.0983C34.3569 23.0983 33.1663 22.7926 32.2768 22.1764C31.3873 21.5603 30.9425 20.4948 30.9425 18.9753C30.9425 18.7344 30.9611 18.4749 30.9935 18.2016C31.0259 17.9283 31.063 17.6457 31.1093 17.3585L32.3648 10.2659H29.7241L30.3495 6.73585H32.9903L33.6852 2.74715H37.9381L37.2107 6.73585H41.6629L41.005 10.2659H36.6177L35.3298 17.3909C35.3067 17.5021 35.2928 17.6086 35.2789 17.7198C35.2696 17.831 35.2603 17.9376 35.2603 18.0487C35.2603 18.5769 35.4086 18.9521 35.7051 19.1698C36.0016 19.3922 36.4927 19.4988 37.1737 19.4988H39.416L38.7581 23.0937H35.8533V23.0983Z" fill="#020202"/>
<path d="M48.4499 23.4921C46.935 23.4921 45.6424 23.1817 44.5723 22.5702C43.5067 21.9541 42.6913 21.1156 42.1308 20.0454C41.5702 18.9799 41.2876 17.7847 41.2876 16.469C41.2876 15.0422 41.547 13.7172 42.0613 12.4942C42.5755 11.2758 43.2936 10.2011 44.2063 9.27917C45.1189 8.35728 46.1891 7.63458 47.4214 7.12036C48.6538 6.60614 49.9926 6.34671 51.4473 6.34671C53.5599 6.34671 55.2463 6.90725 56.511 8.02835C57.7758 9.14945 58.4058 10.7014 58.4058 12.6795H53.9537C53.9537 11.7993 53.6572 11.123 53.0642 10.6504C52.4712 10.1779 51.7207 9.94163 50.8219 9.94163C49.9232 9.94163 49.2097 10.1269 48.5611 10.5022C47.9125 10.8774 47.3751 11.3731 46.9443 11.9846C46.5134 12.6008 46.1891 13.2632 45.9714 13.9813C45.749 14.6947 45.6424 15.3943 45.6424 16.0752C45.6424 17.2427 45.9621 18.1692 46.5968 18.8641C47.2361 19.559 48.0608 19.9018 49.0707 19.9018C49.9741 19.9018 50.8034 19.6655 51.5632 19.193C52.323 18.7205 52.865 18.0441 53.1939 17.1639H57.6136C57.0855 18.6371 56.3211 19.8416 55.3204 20.7774C54.3197 21.7132 53.2217 22.3988 52.0218 22.8389C50.8219 23.279 49.6313 23.4967 48.4407 23.4967L48.4499 23.4921Z" fill="#020202"/>
<path d="M58.9712 23.0983L63.0295 0.00925827H67.25L65.6332 9.24211C66.3142 8.36191 67.1666 7.65775 68.1905 7.12963C69.2143 6.60151 70.3401 6.33744 71.5724 6.33744C73.2866 6.33744 74.5977 6.79608 75.4964 7.70871C76.3998 8.62134 76.8492 9.95553 76.8492 11.7159C76.8492 12.3738 76.7844 13.0918 76.65 13.8608L75.0007 23.0937H70.7802L72.3647 14.2546C72.4063 13.9906 72.4388 13.745 72.4619 13.5134C72.4851 13.2818 72.4944 13.0548 72.4944 12.837C72.4944 11.8688 72.2581 11.1369 71.7855 10.6458C71.313 10.1501 70.5718 9.90457 69.5572 9.90457C68.3897 9.90457 67.3519 10.3215 66.4393 11.16C65.5266 11.9939 64.9383 13.1613 64.6742 14.6577L63.1917 23.103H58.9712V23.0983Z" fill="#020202"/>
<path d="M77.7061 23.0983L81.7968 0.00925827H86.0173L81.9265 23.0983H77.7061Z" fill="#020202"/>
<path d="M85.1606 23.0983L88.0284 6.74048H92.2488L89.3811 23.0983H85.1606Z" fill="#020202"/>
<path d="M92.582 23.0983L95.4497 6.74048H99.1792L99.0819 9.44595C99.7629 8.50089 100.62 7.74577 101.653 7.18522C102.686 6.62467 103.84 6.34208 105.118 6.34208C106.809 6.34208 108.125 6.80997 109.061 7.74576C109.997 8.68156 110.465 10.025 110.465 11.7854C110.465 12.0958 110.446 12.4247 110.414 12.7768C110.381 13.1289 110.33 13.4902 110.265 13.8655L108.616 23.0983H104.396L105.98 14.2593C106.022 14.0832 106.059 13.8469 106.077 13.5505C106.101 13.254 106.11 13.027 106.11 12.8741C106.11 10.896 105.132 9.90457 103.173 9.90457C102.404 9.90457 101.676 10.0899 100.995 10.4651C100.314 10.8404 99.7397 11.3685 99.2811 12.0495C98.8178 12.7305 98.4981 13.5551 98.3267 14.5233L96.8072 23.0983H92.5867H92.582Z" fill="#020202"/>
<path d="M119.198 23.4921C117.02 23.4921 115.287 22.8667 114.004 21.6112C112.716 20.3558 112.072 18.6649 112.072 16.5339C112.072 15.1256 112.318 13.8099 112.814 12.5776C113.309 11.3453 114.004 10.2613 114.908 9.33013C115.811 8.39434 116.881 7.66238 118.123 7.13889C119.364 6.61077 120.722 6.34671 122.195 6.34671C123.668 6.34671 124.859 6.6154 125.906 7.15278C126.948 7.69017 127.754 8.44992 128.315 9.42741C128.875 10.4049 129.158 11.5445 129.158 12.8417C129.158 13.3698 129.107 13.9118 129.01 14.4724C128.913 15.0329 128.797 15.524 128.662 15.9409H116.26C116.237 16.0289 116.228 16.1169 116.228 16.205V16.5015C116.228 17.5994 116.557 18.4657 117.219 19.0911C117.882 19.7165 118.734 20.0315 119.791 20.0315C120.624 20.0315 121.37 19.8369 122.019 19.4524C122.668 19.0679 123.2 18.5676 123.617 17.9515H127.903C127.31 19.2069 126.541 20.24 125.595 21.0507C124.65 21.866 123.622 22.4729 122.51 22.8806C121.398 23.2883 120.296 23.4921 119.193 23.4921H119.198ZM116.788 13.3003H124.933C124.956 13.2123 124.965 13.1335 124.965 13.0687V12.939C124.989 11.9707 124.692 11.2017 124.076 10.6319C123.46 10.0621 122.644 9.77486 121.634 9.77486C120.624 9.77486 119.665 10.0667 118.767 10.6504C117.863 11.2341 117.205 12.119 116.788 13.3049V13.3003Z" fill="#020202"/>
<path d="M92.7766 3.7895H88.5469L89.214 0.00926208H93.4438L92.7766 3.7895Z" fill="#020202"/>
</svg>
